<mxfile host="65bd71144e">
    <diagram id="IepLzT0yGKEcJILLOsCL" name="Page-1">
        <mxGraphModel dx="1189" dy="873" grid="1" gridSize="10" guides="1" tooltips="1" connect="1" arrows="1" fold="1" page="1" pageScale="1" pageWidth="850" pageHeight="1100" math="0" shadow="0">
            <root>
                <mxCell id="0"/>
                <mxCell id="1" parent="0"/>
                <mxCell id="2" value="&lt;p style=&quot;margin:0px;margin-top:6px;text-align:center;&quot;&gt;«subsystem» User Information&lt;br&gt;&lt;/p&gt;&lt;hr&gt;&lt;p style=&quot;margin:0px;margin-left:8px;&quot;&gt;&lt;br&gt;&lt;/p&gt;" style="align=left;overflow=fill;html=1;dropTarget=0;fontColor=#000000;strokeColor=#000000;" vertex="1" parent="1">
                    <mxGeometry x="666" y="640" width="650" height="300" as="geometry"/>
                </mxCell>
                <mxCell id="3" value="" style="shape=component;jettyWidth=8;jettyHeight=4;fontColor=#000000;strokeColor=#000000;" vertex="1" parent="2">
                    <mxGeometry x="1" width="20" height="20" relative="1" as="geometry">
                        <mxPoint x="-24" y="4" as="offset"/>
                    </mxGeometry>
                </mxCell>
                <mxCell id="4" value="&lt;p style=&quot;margin:0px;margin-top:6px;text-align:center;&quot;&gt;«subsystem» Processing&lt;br&gt;&lt;/p&gt;&lt;hr&gt;&lt;p style=&quot;margin:0px;margin-left:8px;&quot;&gt;&lt;br&gt;&lt;/p&gt;" style="align=left;overflow=fill;html=1;dropTarget=0;fontColor=#000000;strokeColor=#000000;" vertex="1" parent="1">
                    <mxGeometry x="810.5" y="160" width="211" height="140" as="geometry"/>
                </mxCell>
                <mxCell id="5" value="" style="shape=component;jettyWidth=8;jettyHeight=4;fontColor=#000000;strokeColor=#000000;" vertex="1" parent="4">
                    <mxGeometry x="1" width="20" height="20" relative="1" as="geometry">
                        <mxPoint x="-24" y="4" as="offset"/>
                    </mxGeometry>
                </mxCell>
                <mxCell id="6" value="&lt;p style=&quot;margin:0px;margin-top:6px;text-align:center;&quot;&gt;«subsystem» Admin and Reporting&lt;br&gt;&lt;/p&gt;&lt;hr&gt;&lt;p style=&quot;margin:0px;margin-left:8px;&quot;&gt;&lt;br&gt;&lt;/p&gt;" style="align=left;overflow=fill;html=1;dropTarget=0;fontColor=#000000;strokeColor=#000000;" vertex="1" parent="1">
                    <mxGeometry x="817.25" y="951" width="446" height="300" as="geometry"/>
                </mxCell>
                <mxCell id="7" value="" style="shape=component;jettyWidth=8;jettyHeight=4;fontColor=#000000;strokeColor=#000000;" vertex="1" parent="6">
                    <mxGeometry x="1" width="20" height="20" relative="1" as="geometry">
                        <mxPoint x="-24" y="4" as="offset"/>
                    </mxGeometry>
                </mxCell>
                <mxCell id="8" value="&lt;p style=&quot;margin:0px;margin-top:6px;text-align:center;&quot;&gt;«subsystem» Personalised Dashboard&lt;br&gt;&lt;/p&gt;&lt;hr&gt;&lt;p style=&quot;margin:0px;margin-left:8px;&quot;&gt;&lt;br&gt;&lt;/p&gt;" style="align=left;overflow=fill;html=1;dropTarget=0;fontColor=#000000;strokeColor=#000000;" vertex="1" parent="1">
                    <mxGeometry x="840.5" y="397" width="402" height="230" as="geometry"/>
                </mxCell>
                <mxCell id="9" value="" style="shape=component;jettyWidth=8;jettyHeight=4;fontColor=#000000;strokeColor=#000000;" vertex="1" parent="8">
                    <mxGeometry x="1" width="20" height="20" relative="1" as="geometry">
                        <mxPoint x="-24" y="4" as="offset"/>
                    </mxGeometry>
                </mxCell>
                <mxCell id="10" value="&lt;p style=&quot;margin:0px;margin-top:6px;text-align:center;&quot;&gt;«subsystem» Feedback&lt;br&gt;&lt;/p&gt;&lt;hr&gt;&lt;p style=&quot;margin:0px;margin-left:8px;&quot;&gt;&lt;br&gt;&lt;/p&gt;" style="align=left;overflow=fill;html=1;dropTarget=0;fontColor=#000000;strokeColor=#000000;" vertex="1" parent="1">
                    <mxGeometry x="340" y="455" width="366" height="152" as="geometry"/>
                </mxCell>
                <mxCell id="11" value="" style="shape=component;jettyWidth=8;jettyHeight=4;fontColor=#000000;strokeColor=#000000;" vertex="1" parent="10">
                    <mxGeometry x="1" width="20" height="20" relative="1" as="geometry">
                        <mxPoint x="-24" y="4" as="offset"/>
                    </mxGeometry>
                </mxCell>
                <mxCell id="12" value="&lt;p style=&quot;margin:0px;margin-top:6px;text-align:center;&quot;&gt;«subsystem» Anonymous Forum&lt;br&gt;&lt;/p&gt;&lt;hr&gt;&lt;p style=&quot;margin:0px;margin-left:8px;&quot;&gt;&lt;br&gt;&lt;/p&gt;" style="align=left;overflow=fill;html=1;dropTarget=0;fontColor=#000000;strokeColor=#000000;" vertex="1" parent="1">
                    <mxGeometry x="310" y="1001" width="366" height="270" as="geometry"/>
                </mxCell>
                <mxCell id="13" value="" style="shape=component;jettyWidth=8;jettyHeight=4;fontColor=#000000;strokeColor=#000000;" vertex="1" parent="12">
                    <mxGeometry x="1" width="20" height="20" relative="1" as="geometry">
                        <mxPoint x="-24" y="4" as="offset"/>
                    </mxGeometry>
                </mxCell>
                <mxCell id="14" value="&lt;font&gt;«Component»&lt;br&gt;&lt;b style=&quot;&quot;&gt;Authentication&lt;/b&gt;&lt;/font&gt;" style="html=1;dropTarget=0;fontColor=#000000;strokeColor=#000000;" vertex="1" parent="1">
                    <mxGeometry x="716" y="680" width="140" height="100" as="geometry"/>
                </mxCell>
                <mxCell id="15" value="" style="shape=module;jettyWidth=8;jettyHeight=4;fontColor=#000000;strokeColor=#000000;" vertex="1" parent="14">
                    <mxGeometry x="1" width="20" height="20" relative="1" as="geometry">
                        <mxPoint x="-27" y="7" as="offset"/>
                    </mxGeometry>
                </mxCell>
                <mxCell id="16" value="&lt;font&gt;«Component»&lt;br&gt;&lt;b&gt;Update Profile&lt;/b&gt;&lt;/font&gt;" style="html=1;dropTarget=0;fontColor=#000000;strokeColor=#000000;" vertex="1" parent="1">
                    <mxGeometry x="941" y="680" width="140" height="100" as="geometry"/>
                </mxCell>
                <mxCell id="17" value="" style="shape=module;jettyWidth=8;jettyHeight=4;fontColor=#000000;strokeColor=#000000;" vertex="1" parent="16">
                    <mxGeometry x="1" width="20" height="20" relative="1" as="geometry">
                        <mxPoint x="-27" y="7" as="offset"/>
                    </mxGeometry>
                </mxCell>
                <mxCell id="18" value="&lt;font&gt;«Component»&lt;br&gt;&lt;b&gt;Forum and Post Draft&lt;/b&gt;&lt;/font&gt;" style="html=1;dropTarget=0;fontColor=#000000;strokeColor=#000000;" vertex="1" parent="1">
                    <mxGeometry x="1159" y="680" width="140" height="100" as="geometry"/>
                </mxCell>
                <mxCell id="19" value="" style="shape=module;jettyWidth=8;jettyHeight=4;fontColor=#000000;strokeColor=#000000;" vertex="1" parent="18">
                    <mxGeometry x="1" width="20" height="20" relative="1" as="geometry">
                        <mxPoint x="-27" y="7" as="offset"/>
                    </mxGeometry>
                </mxCell>
                <mxCell id="20" value="&lt;font&gt;«Component»&lt;br&gt;&lt;b&gt;Update SRC&lt;br&gt;Information Board&lt;/b&gt;&lt;/font&gt;" style="html=1;dropTarget=0;fontColor=#000000;strokeColor=#000000;" vertex="1" parent="1">
                    <mxGeometry x="810.5" y="833" width="140" height="100" as="geometry"/>
                </mxCell>
                <mxCell id="21" value="" style="shape=module;jettyWidth=8;jettyHeight=4;fontColor=#000000;strokeColor=#000000;" vertex="1" parent="20">
                    <mxGeometry x="1" width="20" height="20" relative="1" as="geometry">
                        <mxPoint x="-27" y="7" as="offset"/>
                    </mxGeometry>
                </mxCell>
                <mxCell id="22" value="«Component»&lt;br&gt;&lt;b&gt;Validate Feedback&lt;/b&gt;" style="html=1;dropTarget=0;fontColor=#000000;strokeColor=#000000;" vertex="1" parent="1">
                    <mxGeometry x="847.5" y="197" width="130" height="80" as="geometry"/>
                </mxCell>
                <mxCell id="23" value="" style="shape=module;jettyWidth=8;jettyHeight=4;fontColor=#000000;strokeColor=#000000;" vertex="1" parent="22">
                    <mxGeometry x="1" width="20" height="20" relative="1" as="geometry">
                        <mxPoint x="-27" y="7" as="offset"/>
                    </mxGeometry>
                </mxCell>
                <mxCell id="24" value="&lt;font&gt;«Component»&lt;br&gt;&lt;b&gt;Manage User&lt;/b&gt;&lt;/font&gt;" style="html=1;dropTarget=0;fontColor=#000000;strokeColor=#000000;" vertex="1" parent="1">
                    <mxGeometry x="852" y="994" width="140" height="100" as="geometry"/>
                </mxCell>
                <mxCell id="25" value="" style="shape=module;jettyWidth=8;jettyHeight=4;fontColor=#000000;strokeColor=#000000;" vertex="1" parent="24">
                    <mxGeometry x="1" width="20" height="20" relative="1" as="geometry">
                        <mxPoint x="-27" y="7" as="offset"/>
                    </mxGeometry>
                </mxCell>
                <mxCell id="26" value="&lt;font&gt;«Component»&lt;br&gt;&lt;b style=&quot;&quot;&gt;Post Filtration&lt;/b&gt;&lt;/font&gt;" style="html=1;dropTarget=0;fontColor=#000000;strokeColor=#000000;" vertex="1" parent="1">
                    <mxGeometry x="1074.25" y="994" width="140" height="100" as="geometry"/>
                </mxCell>
                <mxCell id="27" value="" style="shape=module;jettyWidth=8;jettyHeight=4;fontColor=#000000;strokeColor=#000000;" vertex="1" parent="26">
                    <mxGeometry x="1" width="20" height="20" relative="1" as="geometry">
                        <mxPoint x="-27" y="7" as="offset"/>
                    </mxGeometry>
                </mxCell>
                <mxCell id="28" value="&lt;font&gt;«Component»&lt;br&gt;&lt;b&gt;Manage Feedback&lt;/b&gt;&lt;/font&gt;" style="html=1;dropTarget=0;fontColor=#000000;strokeColor=#000000;" vertex="1" parent="1">
                    <mxGeometry x="907.25" y="1127" width="140" height="100" as="geometry"/>
                </mxCell>
                <mxCell id="29" value="" style="shape=module;jettyWidth=8;jettyHeight=4;fontColor=#000000;strokeColor=#000000;" vertex="1" parent="28">
                    <mxGeometry x="1" width="20" height="20" relative="1" as="geometry">
                        <mxPoint x="-27" y="7" as="offset"/>
                    </mxGeometry>
                </mxCell>
                <mxCell id="30" value="&lt;font&gt;«Component»&lt;br&gt;&lt;/font&gt;&lt;b&gt;Manage Report&lt;br&gt;&lt;/b&gt;" style="html=1;dropTarget=0;fontColor=#000000;strokeColor=#000000;" vertex="1" parent="1">
                    <mxGeometry x="1079.25" y="1104" width="140" height="100" as="geometry"/>
                </mxCell>
                <mxCell id="31" value="" style="shape=module;jettyWidth=8;jettyHeight=4;fontColor=#000000;strokeColor=#000000;" vertex="1" parent="30">
                    <mxGeometry x="1" width="20" height="20" relative="1" as="geometry">
                        <mxPoint x="-27" y="7" as="offset"/>
                    </mxGeometry>
                </mxCell>
                <mxCell id="32" value="«Component»&lt;br&gt;&lt;b&gt;Make Post&lt;/b&gt;" style="html=1;dropTarget=0;fontColor=#000000;strokeColor=#000000;" vertex="1" parent="1">
                    <mxGeometry x="882" y="437" width="130" height="80" as="geometry"/>
                </mxCell>
                <mxCell id="33" value="" style="shape=module;jettyWidth=8;jettyHeight=4;fontColor=#000000;strokeColor=#000000;" vertex="1" parent="32">
                    <mxGeometry x="1" width="20" height="20" relative="1" as="geometry">
                        <mxPoint x="-27" y="7" as="offset"/>
                    </mxGeometry>
                </mxCell>
                <mxCell id="34" value="«Component»&lt;br&gt;&lt;b&gt;Edit Post&lt;/b&gt;" style="html=1;dropTarget=0;fontColor=#000000;strokeColor=#000000;" vertex="1" parent="1">
                    <mxGeometry x="1056.5" y="437" width="130" height="80" as="geometry"/>
                </mxCell>
                <mxCell id="35" value="" style="shape=module;jettyWidth=8;jettyHeight=4;fontColor=#000000;strokeColor=#000000;" vertex="1" parent="34">
                    <mxGeometry x="1" width="20" height="20" relative="1" as="geometry">
                        <mxPoint x="-27" y="7" as="offset"/>
                    </mxGeometry>
                </mxCell>
                <mxCell id="36" value="«Component»&lt;br&gt;&lt;b&gt;Delete Post&lt;/b&gt;" style="html=1;dropTarget=0;fontColor=#000000;strokeColor=#000000;" vertex="1" parent="1">
                    <mxGeometry x="1027.5" y="527" width="130" height="80" as="geometry"/>
                </mxCell>
                <mxCell id="37" value="" style="shape=module;jettyWidth=8;jettyHeight=4;fontColor=#000000;strokeColor=#000000;" vertex="1" parent="36">
                    <mxGeometry x="1" width="20" height="20" relative="1" as="geometry">
                        <mxPoint x="-27" y="7" as="offset"/>
                    </mxGeometry>
                </mxCell>
                <mxCell id="38" value="«Component»&lt;br&gt;&lt;b&gt;View Feedback&lt;/b&gt;" style="html=1;dropTarget=0;fontColor=#000000;strokeColor=#000000;" vertex="1" parent="1">
                    <mxGeometry x="360" y="500" width="130" height="80" as="geometry"/>
                </mxCell>
                <mxCell id="39" value="" style="shape=module;jettyWidth=8;jettyHeight=4;fontColor=#000000;strokeColor=#000000;" vertex="1" parent="38">
                    <mxGeometry x="1" width="20" height="20" relative="1" as="geometry">
                        <mxPoint x="-27" y="7" as="offset"/>
                    </mxGeometry>
                </mxCell>
                <mxCell id="40" value="«Component»&lt;br&gt;&lt;b&gt;Submit Feedback&lt;/b&gt;" style="html=1;dropTarget=0;fontColor=#000000;strokeColor=#000000;" vertex="1" parent="1">
                    <mxGeometry x="536" y="501" width="130" height="80" as="geometry"/>
                </mxCell>
                <mxCell id="41" value="" style="shape=module;jettyWidth=8;jettyHeight=4;fontColor=#000000;strokeColor=#000000;" vertex="1" parent="40">
                    <mxGeometry x="1" width="20" height="20" relative="1" as="geometry">
                        <mxPoint x="-27" y="7" as="offset"/>
                    </mxGeometry>
                </mxCell>
                <mxCell id="42" value="«Component»&lt;br&gt;&lt;b&gt;Create Forum&lt;/b&gt;" style="html=1;dropTarget=0;fontColor=#000000;strokeColor=#000000;" vertex="1" parent="1">
                    <mxGeometry x="509.5" y="1038" width="130" height="90" as="geometry"/>
                </mxCell>
                <mxCell id="43" value="" style="shape=module;jettyWidth=8;jettyHeight=4;fontColor=#000000;strokeColor=#000000;" vertex="1" parent="42">
                    <mxGeometry x="1" width="20" height="20" relative="1" as="geometry">
                        <mxPoint x="-27" y="7" as="offset"/>
                    </mxGeometry>
                </mxCell>
                <mxCell id="44" value="«Component»&lt;br&gt;&lt;b&gt;Forum Comments&lt;/b&gt;" style="html=1;dropTarget=0;fontColor=#000000;strokeColor=#000000;" vertex="1" parent="1">
                    <mxGeometry x="340" y="1038" width="130" height="90" as="geometry"/>
                </mxCell>
                <mxCell id="45" value="" style="shape=module;jettyWidth=8;jettyHeight=4;fontColor=#000000;strokeColor=#000000;" vertex="1" parent="44">
                    <mxGeometry x="1" width="20" height="20" relative="1" as="geometry">
                        <mxPoint x="-27" y="7" as="offset"/>
                    </mxGeometry>
                </mxCell>
                <mxCell id="46" value="«Component»&lt;br&gt;&lt;b&gt;Edit Forum&lt;/b&gt;" style="html=1;dropTarget=0;fontColor=#000000;strokeColor=#000000;" vertex="1" parent="1">
                    <mxGeometry x="340" y="1154" width="130" height="80" as="geometry"/>
                </mxCell>
                <mxCell id="47" value="" style="shape=module;jettyWidth=8;jettyHeight=4;fontColor=#000000;strokeColor=#000000;" vertex="1" parent="46">
                    <mxGeometry x="1" width="20" height="20" relative="1" as="geometry">
                        <mxPoint x="-27" y="7" as="offset"/>
                    </mxGeometry>
                </mxCell>
                <mxCell id="48" value="" style="html=1;rounded=0;fontColor=#000000;strokeColor=#000000;" vertex="1" parent="1">
                    <mxGeometry x="656" y="719" width="20" height="20" as="geometry"/>
                </mxCell>
                <mxCell id="49" value="" style="endArrow=none;html=1;rounded=0;align=center;verticalAlign=top;endFill=0;labelBackgroundColor=none;endSize=2;fontColor=#000000;strokeColor=#000000;" edge="1" parent="1" source="48" target="50">
                    <mxGeometry relative="1" as="geometry"/>
                </mxCell>
                <mxCell id="50" value="" style="ellipse;html=1;fontSize=11;align=center;fillColor=none;points=[];aspect=fixed;resizable=0;verticalAlign=bottom;labelPosition=center;verticalLabelPosition=top;flipH=1;fontColor=#000000;strokeColor=#000000;" vertex="1" parent="1">
                    <mxGeometry x="616" y="725" width="8" height="8" as="geometry"/>
                </mxCell>
                <mxCell id="51" value="Login" style="text;html=1;strokeColor=none;fillColor=none;align=center;verticalAlign=middle;whiteSpace=wrap;rounded=0;fontColor=#000000;" vertex="1" parent="1">
                    <mxGeometry x="590" y="700" width="60" height="30" as="geometry"/>
                </mxCell>
                <mxCell id="52" value="&lt;font&gt;«Component»&lt;br&gt;&lt;b&gt;Delete Profile&lt;/b&gt;&lt;/font&gt;" style="html=1;dropTarget=0;fontColor=#000000;strokeColor=#000000;" vertex="1" parent="1">
                    <mxGeometry x="961" y="787" width="140" height="100" as="geometry"/>
                </mxCell>
                <mxCell id="53" value="" style="shape=module;jettyWidth=8;jettyHeight=4;fontColor=#000000;strokeColor=#000000;" vertex="1" parent="52">
                    <mxGeometry x="1" width="20" height="20" relative="1" as="geometry">
                        <mxPoint x="-27" y="7" as="offset"/>
                    </mxGeometry>
                </mxCell>
                <mxCell id="54" value="" style="html=1;verticalAlign=bottom;labelBackgroundColor=none;startArrow=oval;startFill=0;startSize=8;endArrow=none;fontColor=#000000;strokeColor=#000000;" edge="1" parent="1">
                    <mxGeometry x="-0.2" y="10" relative="1" as="geometry">
                        <mxPoint x="688" y="730" as="sourcePoint"/>
                        <mxPoint x="676" y="730" as="targetPoint"/>
                        <mxPoint as="offset"/>
                    </mxGeometry>
                </mxCell>
                <mxCell id="55" value="" style="html=1;rounded=0;fontColor=#000000;strokeColor=#000000;" vertex="1" parent="1">
                    <mxGeometry x="706" y="720" width="21" height="20" as="geometry"/>
                </mxCell>
                <mxCell id="56" value="" style="endArrow=none;html=1;rounded=0;align=center;verticalAlign=top;endFill=0;labelBackgroundColor=none;endSize=2;fontColor=#000000;strokeColor=#000000;" edge="1" parent="1" source="55" target="57">
                    <mxGeometry relative="1" as="geometry"/>
                </mxCell>
                <mxCell id="57" value="" style="shape=requiredInterface;html=1;fontSize=11;align=center;fillColor=none;points=[];aspect=fixed;resizable=0;verticalAlign=bottom;labelPosition=center;verticalLabelPosition=top;flipH=1;fontColor=#000000;direction=west;strokeColor=#000000;" vertex="1" parent="1">
                    <mxGeometry x="689" y="725" width="5" height="10" as="geometry"/>
                </mxCell>
                <mxCell id="58" value="&lt;font style=&quot;font-size: 10px;&quot;&gt;Login Info&lt;/font&gt;" style="text;html=1;strokeColor=none;fillColor=none;align=center;verticalAlign=middle;whiteSpace=wrap;rounded=0;fontColor=#000000;" vertex="1" parent="1">
                    <mxGeometry x="666" y="699" width="50" height="26" as="geometry"/>
                </mxCell>
                <mxCell id="59" value="" style="html=1;rounded=0;fontSize=10;fontColor=#000000;strokeColor=#000000;" vertex="1" parent="1">
                    <mxGeometry x="846" y="725" width="20" height="20" as="geometry"/>
                </mxCell>
                <mxCell id="60" value="" style="endArrow=none;html=1;rounded=0;align=center;verticalAlign=top;endFill=0;labelBackgroundColor=none;endSize=2;fontSize=10;fontColor=#000000;exitX=1;exitY=0.5;exitDx=0;exitDy=0;strokeColor=#000000;" edge="1" parent="1" source="59" target="61">
                    <mxGeometry relative="1" as="geometry">
                        <mxPoint x="884" y="735" as="sourcePoint"/>
                        <mxPoint x="907" y="735" as="targetPoint"/>
                    </mxGeometry>
                </mxCell>
                <mxCell id="61" value="" style="ellipse;html=1;fontSize=11;align=center;fillColor=none;points=[];aspect=fixed;resizable=0;verticalAlign=bottom;labelPosition=center;verticalLabelPosition=top;flipH=1;fontColor=#000000;strokeColor=#000000;" vertex="1" parent="1">
                    <mxGeometry x="894.5" y="731" width="8" height="8" as="geometry"/>
                </mxCell>
                <mxCell id="62" value="" style="html=1;rounded=0;fontSize=10;fontColor=#000000;strokeColor=#000000;" vertex="1" parent="1">
                    <mxGeometry x="931.5" y="725" width="20" height="20" as="geometry"/>
                </mxCell>
                <mxCell id="63" value="" style="endArrow=none;html=1;rounded=0;align=center;verticalAlign=top;endFill=0;labelBackgroundColor=none;endSize=2;fontSize=10;fontColor=#000000;strokeColor=#000000;" edge="1" parent="1" source="62" target="64">
                    <mxGeometry relative="1" as="geometry"/>
                </mxCell>
                <mxCell id="64" value="" style="shape=requiredInterface;html=1;fontSize=11;align=center;fillColor=none;points=[];aspect=fixed;resizable=0;verticalAlign=bottom;labelPosition=center;verticalLabelPosition=top;flipH=1;fontColor=#000000;direction=west;strokeColor=#000000;" vertex="1" parent="1">
                    <mxGeometry x="900.5" y="730" width="5" height="10" as="geometry"/>
                </mxCell>
                <mxCell id="65" value="&lt;font style=&quot;font-size: 9px;&quot;&gt;User Type&lt;/font&gt;" style="text;html=1;strokeColor=none;fillColor=none;align=center;verticalAlign=middle;whiteSpace=wrap;rounded=0;fontColor=#000000;" vertex="1" parent="1">
                    <mxGeometry x="875" y="705" width="50" height="26" as="geometry"/>
                </mxCell>
                <mxCell id="66" value="" style="endArrow=none;html=1;rounded=0;align=center;verticalAlign=top;endFill=0;labelBackgroundColor=none;endSize=2;fontSize=10;fontColor=#000000;exitX=1;exitY=0.75;exitDx=0;exitDy=0;strokeColor=#000000;" edge="1" parent="1" source="59" target="67">
                    <mxGeometry relative="1" as="geometry">
                        <mxPoint x="863.5" y="745" as="sourcePoint"/>
                        <mxPoint x="904.5" y="745" as="targetPoint"/>
                    </mxGeometry>
                </mxCell>
                <mxCell id="67" value="" style="ellipse;html=1;fontSize=11;align=center;fillColor=none;points=[];aspect=fixed;resizable=0;verticalAlign=bottom;labelPosition=center;verticalLabelPosition=top;flipH=1;fontColor=#000000;strokeColor=#000000;" vertex="1" parent="1">
                    <mxGeometry x="896" y="769" width="8" height="8" as="geometry"/>
                </mxCell>
                <mxCell id="68" value="" style="html=1;rounded=0;fontSize=10;fontColor=#000000;strokeColor=#000000;" vertex="1" parent="1">
                    <mxGeometry x="951.5" y="811" width="20" height="20" as="geometry"/>
                </mxCell>
                <mxCell id="69" value="" style="endArrow=none;html=1;rounded=0;align=center;verticalAlign=top;endFill=0;labelBackgroundColor=none;endSize=2;fontSize=10;fontColor=#000000;exitX=0.005;exitY=0.158;exitDx=0;exitDy=0;exitPerimeter=0;strokeColor=#000000;" edge="1" parent="1" source="68" target="70">
                    <mxGeometry relative="1" as="geometry"/>
                </mxCell>
                <mxCell id="70" value="" style="shape=requiredInterface;html=1;fontSize=11;align=center;fillColor=none;points=[];aspect=fixed;resizable=0;verticalAlign=bottom;labelPosition=center;verticalLabelPosition=top;flipH=1;fontColor=#000000;direction=west;rotation=45;strokeColor=#000000;" vertex="1" parent="1">
                    <mxGeometry x="900.5" y="771" width="5" height="10" as="geometry"/>
                </mxCell>
                <mxCell id="71" value="&lt;font style=&quot;font-size: 9px;&quot;&gt;User Type&lt;/font&gt;" style="text;html=1;strokeColor=none;fillColor=none;align=center;verticalAlign=middle;whiteSpace=wrap;rounded=0;fontColor=#000000;" vertex="1" parent="1">
                    <mxGeometry x="891" y="748" width="50" height="26" as="geometry"/>
                </mxCell>
                <mxCell id="72" value="" style="endArrow=none;html=1;rounded=0;align=center;verticalAlign=top;endFill=0;labelBackgroundColor=none;endSize=2;fontSize=10;fontColor=#000000;exitX=0.854;exitY=1.006;exitDx=0;exitDy=0;exitPerimeter=0;strokeColor=#000000;" edge="1" parent="1" source="59" target="73">
                    <mxGeometry relative="1" as="geometry">
                        <mxPoint x="796" y="760" as="sourcePoint"/>
                        <mxPoint x="834.5" y="765" as="targetPoint"/>
                    </mxGeometry>
                </mxCell>
                <mxCell id="73" value="" style="ellipse;html=1;fontSize=11;align=center;fillColor=none;points=[];aspect=fixed;resizable=0;verticalAlign=bottom;labelPosition=center;verticalLabelPosition=top;flipH=1;fontColor=#000000;strokeColor=#000000;" vertex="1" parent="1">
                    <mxGeometry x="883" y="792" width="8" height="8" as="geometry"/>
                </mxCell>
                <mxCell id="74" value="" style="html=1;rounded=0;fontSize=10;fontColor=#000000;strokeColor=#000000;" vertex="1" parent="1">
                    <mxGeometry x="891.5" y="820" width="20" height="20" as="geometry"/>
                </mxCell>
                <mxCell id="75" value="" style="endArrow=none;html=1;rounded=0;align=center;verticalAlign=top;endFill=0;labelBackgroundColor=none;endSize=2;fontSize=10;fontColor=#000000;exitX=0.5;exitY=0;exitDx=0;exitDy=0;strokeColor=#000000;" edge="1" parent="1" source="74" target="76">
                    <mxGeometry relative="1" as="geometry"/>
                </mxCell>
                <mxCell id="76" value="" style="shape=requiredInterface;html=1;fontSize=11;align=center;fillColor=none;points=[];aspect=fixed;resizable=0;verticalAlign=bottom;labelPosition=center;verticalLabelPosition=top;flipH=1;fontColor=#000000;direction=west;rotation=60;strokeColor=#000000;" vertex="1" parent="1">
                    <mxGeometry x="886.5" y="795" width="5" height="10" as="geometry"/>
                </mxCell>
                <mxCell id="77" value="&lt;font style=&quot;font-size: 9px;&quot;&gt;User Type&lt;/font&gt;" style="text;html=1;strokeColor=none;fillColor=none;align=center;verticalAlign=middle;whiteSpace=wrap;rounded=0;fontColor=#000000;" vertex="1" parent="1">
                    <mxGeometry x="833" y="783" width="50" height="26" as="geometry"/>
                </mxCell>
                <mxCell id="78" value="" style="html=1;rounded=0;fontSize=9;fontColor=#000000;strokeColor=#000000;" vertex="1" parent="1">
                    <mxGeometry x="1072" y="725" width="20" height="20" as="geometry"/>
                </mxCell>
                <mxCell id="79" value="" style="endArrow=none;html=1;rounded=0;align=center;verticalAlign=top;endFill=0;labelBackgroundColor=none;endSize=2;fontSize=9;fontColor=#000000;strokeColor=#000000;" edge="1" parent="1" source="78" target="80">
                    <mxGeometry relative="1" as="geometry"/>
                </mxCell>
                <mxCell id="80" value="" style="ellipse;html=1;fontSize=11;align=center;fillColor=none;points=[];aspect=fixed;resizable=0;verticalAlign=bottom;labelPosition=center;verticalLabelPosition=top;flipH=1;fontColor=#000000;strokeColor=#000000;" vertex="1" parent="1">
                    <mxGeometry x="1113" y="731" width="8" height="8" as="geometry"/>
                </mxCell>
                <mxCell id="81" value="" style="html=1;rounded=0;fontSize=9;fontColor=#000000;strokeColor=#000000;" vertex="1" parent="1">
                    <mxGeometry x="1146" y="725" width="20" height="20" as="geometry"/>
                </mxCell>
                <mxCell id="82" value="" style="endArrow=none;html=1;rounded=0;align=center;verticalAlign=top;endFill=0;labelBackgroundColor=none;endSize=2;fontSize=10;fontColor=#000000;strokeColor=#000000;" edge="1" parent="1" target="83">
                    <mxGeometry relative="1" as="geometry">
                        <mxPoint x="1146" y="735" as="sourcePoint"/>
                    </mxGeometry>
                </mxCell>
                <mxCell id="83" value="" style="shape=requiredInterface;html=1;fontSize=11;align=center;fillColor=none;points=[];aspect=fixed;resizable=0;verticalAlign=bottom;labelPosition=center;verticalLabelPosition=top;flipH=1;fontColor=#000000;direction=west;strokeColor=#000000;" vertex="1" parent="1">
                    <mxGeometry x="1119" y="730" width="5" height="10" as="geometry"/>
                </mxCell>
                <mxCell id="84" value="&lt;font style=&quot;font-size: 9px;&quot;&gt;Profile Info&lt;/font&gt;" style="text;html=1;strokeColor=none;fillColor=none;align=center;verticalAlign=middle;whiteSpace=wrap;rounded=0;fontColor=#000000;" vertex="1" parent="1">
                    <mxGeometry x="1096.5" y="708" width="50" height="26" as="geometry"/>
                </mxCell>
                <mxCell id="85" value="" style="html=1;rounded=0;fontSize=9;fontColor=#000000;strokeColor=#000000;" vertex="1" parent="1">
                    <mxGeometry x="779.25" y="769" width="20" height="20" as="geometry"/>
                </mxCell>
                <mxCell id="86" value="" style="endArrow=none;html=1;rounded=0;align=center;verticalAlign=top;endFill=0;labelBackgroundColor=none;endSize=2;fontSize=9;fontColor=#000000;strokeColor=#000000;" edge="1" parent="1" source="85" target="87">
                    <mxGeometry relative="1" as="geometry"/>
                </mxCell>
                <mxCell id="87" value="" style="ellipse;html=1;fontSize=11;align=center;fillColor=none;points=[];aspect=fixed;resizable=0;verticalAlign=bottom;labelPosition=center;verticalLabelPosition=top;flipH=1;fontColor=#000000;strokeColor=#000000;" vertex="1" parent="1">
                    <mxGeometry x="785.25" y="855" width="8" height="8" as="geometry"/>
                </mxCell>
                <mxCell id="88" value="" style="html=1;rounded=0;fontSize=9;fontColor=#000000;strokeColor=#000000;" vertex="1" parent="1">
                    <mxGeometry x="779.25" y="931" width="20" height="20" as="geometry"/>
                </mxCell>
                <mxCell id="89" value="" style="endArrow=none;html=1;rounded=0;align=center;verticalAlign=top;endFill=0;labelBackgroundColor=none;endSize=2;fontSize=9;fontColor=#000000;strokeColor=#000000;" edge="1" parent="1" source="88" target="90">
                    <mxGeometry relative="1" as="geometry"/>
                </mxCell>
                <mxCell id="90" value="" style="ellipse;html=1;fontSize=11;align=center;fillColor=none;points=[];aspect=fixed;resizable=0;verticalAlign=bottom;labelPosition=center;verticalLabelPosition=top;flipH=1;fontColor=#000000;strokeColor=#000000;" vertex="1" parent="1">
                    <mxGeometry x="785.25" y="984" width="8" height="8" as="geometry"/>
                </mxCell>
                <mxCell id="91" value="" style="endArrow=none;html=1;rounded=0;align=center;verticalAlign=top;endFill=0;labelBackgroundColor=none;endSize=2;fontSize=9;fontColor=#000000;entryX=0.5;entryY=0;entryDx=0;entryDy=0;strokeColor=#000000;" edge="1" parent="1" target="88">
                    <mxGeometry relative="1" as="geometry">
                        <mxPoint x="789.1500000000001" y="863" as="sourcePoint"/>
                        <mxPoint x="789.25" y="922" as="targetPoint"/>
                    </mxGeometry>
                </mxCell>
                <mxCell id="92" value="" style="html=1;rounded=0;fontSize=9;fontColor=#000000;strokeColor=#000000;" vertex="1" parent="1">
                    <mxGeometry x="808.25" y="1032" width="20" height="20" as="geometry"/>
                </mxCell>
                <mxCell id="93" value="" style="html=1;rounded=0;fontSize=9;fontColor=#000000;strokeColor=#000000;" vertex="1" parent="1">
                    <mxGeometry x="873.5" y="467" width="19" height="20" as="geometry"/>
                </mxCell>
                <mxCell id="94" value="" style="endArrow=none;html=1;rounded=0;align=center;verticalAlign=top;endFill=0;labelBackgroundColor=none;endSize=2;fontSize=9;fontColor=#000000;entryX=0.073;entryY=0.486;entryDx=0;entryDy=0;entryPerimeter=0;strokeColor=#000000;" edge="1" parent="1" source="93" target="96">
                    <mxGeometry relative="1" as="geometry">
                        <mxPoint x="877" y="477" as="targetPoint"/>
                    </mxGeometry>
                </mxCell>
                <mxCell id="95" value="" style="endArrow=none;html=1;rounded=0;align=center;verticalAlign=top;endFill=0;labelBackgroundColor=none;endSize=2;fontSize=9;fontColor=#000000;exitX=1;exitY=0.5;exitDx=0;exitDy=0;strokeColor=#000000;" edge="1" parent="1" source="127" target="96">
                    <mxGeometry relative="1" as="geometry">
                        <mxPoint x="851.5" y="477" as="sourcePoint"/>
                    </mxGeometry>
                </mxCell>
                <mxCell id="96" value="" style="ellipse;html=1;fontSize=11;align=center;fillColor=none;points=[];aspect=fixed;resizable=0;verticalAlign=bottom;labelPosition=center;verticalLabelPosition=top;flipH=1;fontColor=#000000;strokeColor=#000000;" vertex="1" parent="1">
                    <mxGeometry x="857.5" y="473" width="8" height="8" as="geometry"/>
                </mxCell>
                <mxCell id="97" value="" style="endArrow=none;html=1;rounded=0;align=center;verticalAlign=top;endFill=0;labelBackgroundColor=none;endSize=2;fontSize=9;fontColor=#000000;exitX=1;exitY=0.5;exitDx=0;exitDy=0;strokeColor=#000000;" edge="1" parent="1" source="99" target="98">
                    <mxGeometry relative="1" as="geometry">
                        <mxPoint x="1057.5" y="485.87531609492055" as="sourcePoint"/>
                    </mxGeometry>
                </mxCell>
                <mxCell id="98" value="" style="ellipse;html=1;fontSize=11;align=center;fillColor=none;points=[];aspect=fixed;resizable=0;verticalAlign=bottom;labelPosition=center;verticalLabelPosition=top;flipH=1;fontColor=#000000;strokeColor=#000000;" vertex="1" parent="1">
                    <mxGeometry x="1030" y="473" width="8" height="8" as="geometry"/>
                </mxCell>
                <mxCell id="99" value="" style="html=1;rounded=0;fontSize=9;fontColor=#000000;strokeColor=#000000;" vertex="1" parent="1">
                    <mxGeometry x="1002.5" y="467" width="19" height="20" as="geometry"/>
                </mxCell>
                <mxCell id="100" value="" style="endArrow=none;html=1;rounded=0;align=center;verticalAlign=top;endFill=0;labelBackgroundColor=none;endSize=2;fontSize=9;fontColor=#000000;exitX=-0.015;exitY=0.508;exitDx=0;exitDy=0;exitPerimeter=0;startArrow=none;entryX=-0.034;entryY=0.516;entryDx=0;entryDy=0;entryPerimeter=0;strokeColor=#000000;" edge="1" parent="1" source="118" target="118">
                    <mxGeometry relative="1" as="geometry">
                        <mxPoint x="1062.5" y="477" as="sourcePoint"/>
                        <mxPoint x="1073.5" y="476.96000000000004" as="targetPoint"/>
                    </mxGeometry>
                </mxCell>
                <mxCell id="101" value="" style="endArrow=none;html=1;rounded=0;align=center;verticalAlign=top;endFill=0;labelBackgroundColor=none;endSize=2;fontSize=9;fontColor=#000000;exitX=0.5;exitY=1;exitDx=0;exitDy=0;strokeColor=#000000;" edge="1" parent="1" source="103" target="102">
                    <mxGeometry relative="1" as="geometry">
                        <mxPoint x="988" y="525.8753160949205" as="sourcePoint"/>
                    </mxGeometry>
                </mxCell>
                <mxCell id="102" value="" style="ellipse;html=1;fontSize=11;align=center;fillColor=none;points=[];aspect=fixed;resizable=0;verticalAlign=bottom;labelPosition=center;verticalLabelPosition=top;flipH=1;fontColor=#000000;strokeColor=#000000;" vertex="1" parent="1">
                    <mxGeometry x="975.5" y="563" width="8" height="8" as="geometry"/>
                </mxCell>
                <mxCell id="103" value="" style="html=1;rounded=0;fontSize=9;fontColor=#000000;strokeColor=#000000;" vertex="1" parent="1">
                    <mxGeometry x="970" y="507" width="19" height="20" as="geometry"/>
                </mxCell>
                <mxCell id="104" value="" style="html=1;rounded=0;fontSize=9;fontColor=#000000;strokeColor=#000000;" vertex="1" parent="1">
                    <mxGeometry x="1017" y="557" width="19" height="20" as="geometry"/>
                </mxCell>
                <mxCell id="105" value="" style="endArrow=none;html=1;rounded=0;align=center;verticalAlign=top;endFill=0;labelBackgroundColor=none;endSize=2;fontSize=9;fontColor=#000000;exitX=0.049;exitY=0.516;exitDx=0;exitDy=0;exitPerimeter=0;entryX=0;entryY=0.5;entryDx=0;entryDy=0;strokeColor=#000000;" edge="1" parent="1" source="102" target="104">
                    <mxGeometry relative="1" as="geometry">
                        <mxPoint x="993" y="517" as="sourcePoint"/>
                        <mxPoint x="1004" y="516.9599999999999" as="targetPoint"/>
                    </mxGeometry>
                </mxCell>
                <mxCell id="106" value="" style="endArrow=none;html=1;rounded=0;align=center;verticalAlign=top;endFill=0;labelBackgroundColor=none;endSize=2;fontSize=9;fontColor=#000000;exitX=0.5;exitY=0;exitDx=0;exitDy=0;strokeColor=#000000;" edge="1" parent="1" source="172" target="107">
                    <mxGeometry relative="1" as="geometry">
                        <mxPoint x="629.2500000000001" y="326.95550745289785" as="sourcePoint"/>
                    </mxGeometry>
                </mxCell>
                <mxCell id="107" value="" style="ellipse;html=1;fontSize=11;align=center;fillColor=none;points=[];aspect=fixed;resizable=0;verticalAlign=bottom;labelPosition=center;verticalLabelPosition=top;flipH=1;fontColor=#000000;strokeColor=#000000;" vertex="1" parent="1">
                    <mxGeometry x="623" y="329" width="8" height="8" as="geometry"/>
                </mxCell>
                <mxCell id="108" value="" style="html=1;rounded=0;fontSize=9;fontColor=#000000;strokeColor=#000000;" vertex="1" parent="1">
                    <mxGeometry x="794.75" y="227" width="20" height="20" as="geometry"/>
                </mxCell>
                <mxCell id="109" value="" style="html=1;rounded=0;fontSize=9;fontColor=#000000;strokeColor=#000000;" vertex="1" parent="1">
                    <mxGeometry x="834.75" y="227" width="19" height="20" as="geometry"/>
                </mxCell>
                <mxCell id="110" value="" style="endArrow=none;html=1;rounded=0;align=center;verticalAlign=top;endFill=0;labelBackgroundColor=none;endSize=2;fontSize=9;fontColor=#000000;entryX=-0.005;entryY=0.505;entryDx=0;entryDy=0;entryPerimeter=0;strokeColor=#000000;" edge="1" parent="1" source="109" target="112">
                    <mxGeometry relative="1" as="geometry">
                        <mxPoint x="853.75" y="237" as="targetPoint"/>
                    </mxGeometry>
                </mxCell>
                <mxCell id="111" value="" style="endArrow=none;html=1;rounded=0;align=center;verticalAlign=top;endFill=0;labelBackgroundColor=none;endSize=2;fontSize=9;fontColor=#000000;exitX=1;exitY=0.5;exitDx=0;exitDy=0;strokeColor=#000000;" edge="1" parent="1" source="108" target="112">
                    <mxGeometry relative="1" as="geometry">
                        <mxPoint x="835.75" y="237" as="sourcePoint"/>
                    </mxGeometry>
                </mxCell>
                <mxCell id="112" value="" style="ellipse;html=1;fontSize=11;align=center;fillColor=none;points=[];aspect=fixed;resizable=0;verticalAlign=bottom;labelPosition=center;verticalLabelPosition=top;flipH=1;fontColor=#000000;strokeColor=#000000;" vertex="1" parent="1">
                    <mxGeometry x="821.25" y="233" width="8" height="8" as="geometry"/>
                </mxCell>
                <mxCell id="113" value="&lt;font style=&quot;font-size: 9px;&quot;&gt;Feedback List&lt;/font&gt;" style="text;html=1;strokeColor=none;fillColor=none;align=center;verticalAlign=middle;whiteSpace=wrap;rounded=0;fontColor=#000000;" vertex="1" parent="1">
                    <mxGeometry x="557" y="320" width="65" height="26" as="geometry"/>
                </mxCell>
                <mxCell id="114" value="" style="endArrow=none;html=1;rounded=0;align=center;verticalAlign=top;endFill=0;labelBackgroundColor=none;endSize=2;fontSize=9;fontColor=#000000;entryX=1.05;entryY=0.517;entryDx=0;entryDy=0;entryPerimeter=0;exitX=0;exitY=0.5;exitDx=0;exitDy=0;strokeColor=#000000;" edge="1" parent="1" source="92" target="115">
                    <mxGeometry relative="1" as="geometry">
                        <mxPoint x="793.25" y="1042" as="sourcePoint"/>
                        <Array as="points">
                            <mxPoint x="789.25" y="1042"/>
                        </Array>
                    </mxGeometry>
                </mxCell>
                <mxCell id="115" value="" style="shape=requiredInterface;html=1;fontSize=11;align=center;fillColor=none;points=[];aspect=fixed;resizable=0;verticalAlign=bottom;labelPosition=center;verticalLabelPosition=top;flipH=1;fontColor=#000000;rotation=-90;strokeColor=#000000;" vertex="1" parent="1">
                    <mxGeometry x="786.75" y="987" width="5" height="10" as="geometry"/>
                </mxCell>
                <mxCell id="116" value="&lt;font style=&quot;font-size: 9px;&quot;&gt;User Type&lt;/font&gt;" style="text;html=1;strokeColor=none;fillColor=none;align=center;verticalAlign=middle;whiteSpace=wrap;rounded=0;fontColor=#000000;" vertex="1" parent="1">
                    <mxGeometry x="734.75" y="971" width="50" height="26" as="geometry"/>
                </mxCell>
                <mxCell id="117" value="" style="endArrow=none;html=1;rounded=0;align=center;verticalAlign=top;endFill=0;labelBackgroundColor=none;endSize=2;fontSize=9;fontColor=#000000;exitX=-0.015;exitY=0.508;exitDx=0;exitDy=0;exitPerimeter=0;strokeColor=#000000;" edge="1" parent="1" source="98" target="118">
                    <mxGeometry relative="1" as="geometry">
                        <mxPoint x="1038.12" y="477.0640000000001" as="sourcePoint"/>
                        <mxPoint x="1073.5" y="476.96000000000004" as="targetPoint"/>
                    </mxGeometry>
                </mxCell>
                <mxCell id="118" value="" style="html=1;rounded=0;fontSize=9;fontColor=#000000;strokeColor=#000000;" vertex="1" parent="1">
                    <mxGeometry x="1048" y="467" width="19" height="20" as="geometry"/>
                </mxCell>
                <mxCell id="119" value="" style="shape=requiredInterface;html=1;fontSize=11;align=center;fillColor=none;points=[];aspect=fixed;resizable=0;verticalAlign=bottom;labelPosition=center;verticalLabelPosition=top;flipH=1;fontColor=#000000;rotation=90;strokeColor=#000000;" vertex="1" parent="1">
                    <mxGeometry x="624.5" y="324" width="5" height="10" as="geometry"/>
                </mxCell>
                <mxCell id="120" value="" style="html=1;rounded=0;fontSize=9;fontColor=#000000;strokeColor=#000000;" vertex="1" parent="1">
                    <mxGeometry x="802.25" y="628" width="20" height="20" as="geometry"/>
                </mxCell>
                <mxCell id="121" value="" style="endArrow=none;html=1;rounded=0;align=center;verticalAlign=top;endFill=0;labelBackgroundColor=none;endSize=2;fontSize=9;fontColor=#000000;strokeColor=#000000;" edge="1" parent="1" source="120" target="122">
                    <mxGeometry relative="1" as="geometry"/>
                </mxCell>
                <mxCell id="122" value="" style="ellipse;html=1;fontSize=11;align=center;fillColor=none;points=[];aspect=fixed;resizable=0;verticalAlign=bottom;labelPosition=center;verticalLabelPosition=top;flipH=1;fontColor=#000000;strokeColor=#000000;" vertex="1" parent="1">
                    <mxGeometry x="808.25" y="655" width="8" height="8" as="geometry"/>
                </mxCell>
                <mxCell id="123" value="" style="html=1;rounded=0;fontSize=9;fontColor=#000000;strokeColor=#000000;" vertex="1" parent="1">
                    <mxGeometry x="802.25" y="670" width="20" height="20" as="geometry"/>
                </mxCell>
                <mxCell id="124" value="" style="endArrow=none;html=1;rounded=0;align=center;verticalAlign=top;endFill=0;labelBackgroundColor=none;endSize=2;fontSize=9;fontColor=#000000;entryX=0.5;entryY=0;entryDx=0;entryDy=0;exitX=0.498;exitY=0.997;exitDx=0;exitDy=0;exitPerimeter=0;strokeColor=#000000;" edge="1" parent="1" source="122" target="123">
                    <mxGeometry relative="1" as="geometry">
                        <mxPoint x="812.15" y="602" as="sourcePoint"/>
                        <mxPoint x="812.25" y="661" as="targetPoint"/>
                    </mxGeometry>
                </mxCell>
                <mxCell id="125" value="" style="endArrow=none;html=1;rounded=0;align=center;verticalAlign=top;endFill=0;labelBackgroundColor=none;endSize=2;fontSize=9;fontColor=#000000;entryX=0.501;entryY=0.995;entryDx=0;entryDy=0;entryPerimeter=0;exitX=0.5;exitY=0;exitDx=0;exitDy=0;strokeColor=#000000;" edge="1" parent="1" source="120" target="126">
                    <mxGeometry relative="1" as="geometry">
                        <mxPoint x="811.25" y="549" as="sourcePoint"/>
                    </mxGeometry>
                </mxCell>
                <mxCell id="126" value="" style="ellipse;html=1;fontSize=11;align=center;fillColor=none;points=[];aspect=fixed;resizable=0;verticalAlign=bottom;labelPosition=center;verticalLabelPosition=top;flipH=1;fontColor=#000000;strokeColor=#000000;" vertex="1" parent="1">
                    <mxGeometry x="808.25" y="604" width="8" height="8" as="geometry"/>
                </mxCell>
                <mxCell id="127" value="" style="html=1;rounded=0;fontSize=9;fontColor=#000000;strokeColor=#000000;" vertex="1" parent="1">
                    <mxGeometry x="830" y="467" width="20" height="20" as="geometry"/>
                </mxCell>
                <mxCell id="128" value="" style="endArrow=none;html=1;rounded=0;align=center;verticalAlign=top;endFill=0;labelBackgroundColor=none;endSize=2;fontSize=9;fontColor=#000000;entryX=1.05;entryY=0.517;entryDx=0;entryDy=0;entryPerimeter=0;exitX=0;exitY=0.5;exitDx=0;exitDy=0;strokeColor=#000000;" edge="1" parent="1" source="127" target="129">
                    <mxGeometry relative="1" as="geometry">
                        <mxPoint x="813.75" y="440" as="sourcePoint"/>
                        <Array as="points">
                            <mxPoint x="812" y="477"/>
                        </Array>
                    </mxGeometry>
                </mxCell>
                <mxCell id="129" value="" style="shape=requiredInterface;html=1;fontSize=11;align=center;fillColor=none;points=[];aspect=fixed;resizable=0;verticalAlign=bottom;labelPosition=center;verticalLabelPosition=top;flipH=1;fontColor=#000000;rotation=90;strokeColor=#000000;" vertex="1" parent="1">
                    <mxGeometry x="809.75" y="598" width="5" height="10" as="geometry"/>
                </mxCell>
                <mxCell id="130" value="&lt;font style=&quot;font-size: 9px;&quot;&gt;User Type&lt;/font&gt;" style="text;html=1;strokeColor=none;fillColor=none;align=center;verticalAlign=middle;whiteSpace=wrap;rounded=0;fontColor=#000000;" vertex="1" parent="1">
                    <mxGeometry x="758.25" y="590" width="50" height="26" as="geometry"/>
                </mxCell>
                <mxCell id="131" value="" style="html=1;rounded=0;fontSize=9;fontColor=#000000;strokeColor=#000000;" vertex="1" parent="1">
                    <mxGeometry x="845.5" y="1032" width="19" height="20" as="geometry"/>
                </mxCell>
                <mxCell id="132" value="" style="endArrow=none;html=1;rounded=0;align=center;verticalAlign=top;endFill=0;labelBackgroundColor=none;endSize=2;fontSize=9;fontColor=#000000;entryX=0.073;entryY=0.486;entryDx=0;entryDy=0;entryPerimeter=0;strokeColor=#000000;" edge="1" parent="1" source="131" target="134">
                    <mxGeometry relative="1" as="geometry">
                        <mxPoint x="842.75" y="1065" as="targetPoint"/>
                    </mxGeometry>
                </mxCell>
                <mxCell id="133" value="" style="endArrow=none;html=1;rounded=0;align=center;verticalAlign=top;endFill=0;labelBackgroundColor=none;endSize=2;fontSize=9;fontColor=#000000;exitX=1;exitY=0.5;exitDx=0;exitDy=0;strokeColor=#000000;" edge="1" parent="1" source="92" target="134">
                    <mxGeometry relative="1" as="geometry">
                        <mxPoint x="826.5" y="1045" as="sourcePoint"/>
                    </mxGeometry>
                </mxCell>
                <mxCell id="134" value="" style="ellipse;html=1;fontSize=11;align=center;fillColor=none;points=[];aspect=fixed;resizable=0;verticalAlign=bottom;labelPosition=center;verticalLabelPosition=top;flipH=1;fontColor=#000000;strokeColor=#000000;" vertex="1" parent="1">
                    <mxGeometry x="833.5" y="1038" width="8" height="8" as="geometry"/>
                </mxCell>
                <mxCell id="135" value="" style="endArrow=none;html=1;rounded=0;align=center;verticalAlign=top;endFill=0;labelBackgroundColor=none;endSize=2;fontSize=9;fontColor=#000000;exitX=1;exitY=0.5;exitDx=0;exitDy=0;strokeColor=#000000;" edge="1" parent="1" source="137" target="136">
                    <mxGeometry relative="1" as="geometry">
                        <mxPoint x="1039.25" y="1052.8753160949204" as="sourcePoint"/>
                    </mxGeometry>
                </mxCell>
                <mxCell id="136" value="" style="ellipse;html=1;fontSize=11;align=center;fillColor=none;points=[];aspect=fixed;resizable=0;verticalAlign=bottom;labelPosition=center;verticalLabelPosition=top;flipH=1;fontColor=#000000;strokeColor=#000000;" vertex="1" parent="1">
                    <mxGeometry x="1030.25" y="1040" width="8" height="8" as="geometry"/>
                </mxCell>
                <mxCell id="137" value="" style="html=1;rounded=0;fontSize=9;fontColor=#000000;strokeColor=#000000;" vertex="1" parent="1">
                    <mxGeometry x="984.25" y="1034" width="19" height="20" as="geometry"/>
                </mxCell>
                <mxCell id="138" value="" style="endArrow=none;html=1;rounded=0;align=center;verticalAlign=top;endFill=0;labelBackgroundColor=none;endSize=2;fontSize=9;fontColor=#000000;exitX=-0.015;exitY=0.508;exitDx=0;exitDy=0;exitPerimeter=0;strokeColor=#000000;" edge="1" parent="1" source="136" target="139">
                    <mxGeometry relative="1" as="geometry">
                        <mxPoint x="1019.8699999999999" y="1044.064" as="sourcePoint"/>
                        <mxPoint x="1055.25" y="1043.96" as="targetPoint"/>
                    </mxGeometry>
                </mxCell>
                <mxCell id="139" value="" style="html=1;rounded=0;fontSize=9;fontColor=#000000;strokeColor=#000000;" vertex="1" parent="1">
                    <mxGeometry x="1064.75" y="1034" width="19" height="20" as="geometry"/>
                </mxCell>
                <mxCell id="140" value="" style="endArrow=none;html=1;rounded=0;align=center;verticalAlign=top;endFill=0;labelBackgroundColor=none;endSize=2;fontSize=9;fontColor=#000000;exitX=1;exitY=0.75;exitDx=0;exitDy=0;strokeColor=#000000;" edge="1" parent="1" source="137" target="141">
                    <mxGeometry relative="1" as="geometry">
                        <mxPoint x="1006.75" y="1174" as="sourcePoint"/>
                    </mxGeometry>
                </mxCell>
                <mxCell id="141" value="" style="ellipse;html=1;fontSize=11;align=center;fillColor=none;points=[];aspect=fixed;resizable=0;verticalAlign=bottom;labelPosition=center;verticalLabelPosition=top;flipH=1;fontColor=#000000;strokeColor=#000000;" vertex="1" parent="1">
                    <mxGeometry x="1038.25" y="1104" width="8" height="8" as="geometry"/>
                </mxCell>
                <mxCell id="142" value="" style="endArrow=none;html=1;rounded=0;align=center;verticalAlign=top;endFill=0;labelBackgroundColor=none;endSize=2;fontSize=9;fontColor=#000000;exitX=0.22;exitY=0.9;exitDx=0;exitDy=0;exitPerimeter=0;entryX=-0.01;entryY=0.142;entryDx=0;entryDy=0;entryPerimeter=0;strokeColor=#000000;" edge="1" parent="1" source="141" target="143">
                    <mxGeometry relative="1" as="geometry">
                        <mxPoint x="1023.3699999999999" y="1174.064" as="sourcePoint"/>
                        <mxPoint x="1058.75" y="1173.96" as="targetPoint"/>
                    </mxGeometry>
                </mxCell>
                <mxCell id="143" value="" style="html=1;rounded=0;fontSize=9;fontColor=#000000;strokeColor=#000000;" vertex="1" parent="1">
                    <mxGeometry x="1070.25" y="1146" width="19" height="20" as="geometry"/>
                </mxCell>
                <mxCell id="144" value="" style="endArrow=none;html=1;rounded=0;align=center;verticalAlign=top;endFill=0;labelBackgroundColor=none;endSize=2;fontSize=9;fontColor=#000000;exitX=0.75;exitY=1;exitDx=0;exitDy=0;strokeColor=#000000;" edge="1" parent="1" source="137" target="145">
                    <mxGeometry relative="1" as="geometry">
                        <mxPoint x="997.5" y="1068" as="sourcePoint"/>
                    </mxGeometry>
                </mxCell>
                <mxCell id="145" value="" style="ellipse;html=1;fontSize=11;align=center;fillColor=none;points=[];aspect=fixed;resizable=0;verticalAlign=bottom;labelPosition=center;verticalLabelPosition=top;flipH=1;fontColor=#000000;strokeColor=#000000;" vertex="1" parent="1">
                    <mxGeometry x="994.75" y="1086" width="8" height="8" as="geometry"/>
                </mxCell>
                <mxCell id="146" value="" style="endArrow=none;html=1;rounded=0;align=center;verticalAlign=top;endFill=0;labelBackgroundColor=none;endSize=2;fontSize=9;fontColor=#000000;exitX=0.501;exitY=1.002;exitDx=0;exitDy=0;exitPerimeter=0;strokeColor=#000000;" edge="1" parent="1" source="145" target="147">
                    <mxGeometry relative="1" as="geometry">
                        <mxPoint x="949.8699999999999" y="1136.064" as="sourcePoint"/>
                        <mxPoint x="985.25" y="1135.96" as="targetPoint"/>
                    </mxGeometry>
                </mxCell>
                <mxCell id="147" value="" style="html=1;rounded=0;fontSize=9;fontColor=#000000;strokeColor=#000000;" vertex="1" parent="1">
                    <mxGeometry x="989.25" y="1119" width="19" height="20" as="geometry"/>
                </mxCell>
                <mxCell id="148" value="" style="html=1;rounded=0;fontSize=9;fontColor=#000000;strokeColor=#000000;" vertex="1" parent="1">
                    <mxGeometry x="740" y="628" width="20" height="20" as="geometry"/>
                </mxCell>
                <mxCell id="149" value="" style="endArrow=none;html=1;rounded=0;align=center;verticalAlign=top;endFill=0;labelBackgroundColor=none;endSize=2;fontSize=9;fontColor=#000000;strokeColor=#000000;" edge="1" parent="1" source="148" target="150">
                    <mxGeometry relative="1" as="geometry"/>
                </mxCell>
                <mxCell id="150" value="" style="ellipse;html=1;fontSize=11;align=center;fillColor=none;points=[];aspect=fixed;resizable=0;verticalAlign=bottom;labelPosition=center;verticalLabelPosition=top;flipH=1;fontColor=#000000;strokeColor=#000000;" vertex="1" parent="1">
                    <mxGeometry x="746" y="655" width="8" height="8" as="geometry"/>
                </mxCell>
                <mxCell id="151" value="" style="html=1;rounded=0;fontSize=9;fontColor=#000000;strokeColor=#000000;" vertex="1" parent="1">
                    <mxGeometry x="740" y="670" width="20" height="20" as="geometry"/>
                </mxCell>
                <mxCell id="152" value="" style="endArrow=none;html=1;rounded=0;align=center;verticalAlign=top;endFill=0;labelBackgroundColor=none;endSize=2;fontSize=9;fontColor=#000000;entryX=0.5;entryY=0;entryDx=0;entryDy=0;exitX=0.498;exitY=0.997;exitDx=0;exitDy=0;exitPerimeter=0;strokeColor=#000000;" edge="1" parent="1" source="150" target="151">
                    <mxGeometry relative="1" as="geometry">
                        <mxPoint x="749.9" y="602" as="sourcePoint"/>
                        <mxPoint x="750" y="661" as="targetPoint"/>
                    </mxGeometry>
                </mxCell>
                <mxCell id="153" value="" style="endArrow=none;html=1;rounded=0;align=center;verticalAlign=top;endFill=0;labelBackgroundColor=none;endSize=2;fontSize=9;fontColor=#000000;entryX=0.501;entryY=0.995;entryDx=0;entryDy=0;entryPerimeter=0;exitX=0.5;exitY=0;exitDx=0;exitDy=0;strokeColor=#000000;" edge="1" parent="1" source="148" target="154">
                    <mxGeometry relative="1" as="geometry">
                        <mxPoint x="750.5" y="627.5" as="sourcePoint"/>
                    </mxGeometry>
                </mxCell>
                <mxCell id="154" value="" style="ellipse;html=1;fontSize=11;align=center;fillColor=none;points=[];aspect=fixed;resizable=0;verticalAlign=bottom;labelPosition=center;verticalLabelPosition=top;flipH=1;fontColor=#000000;strokeColor=#000000;" vertex="1" parent="1">
                    <mxGeometry x="746" y="583" width="8" height="8" as="geometry"/>
                </mxCell>
                <mxCell id="155" value="" style="endArrow=none;html=1;rounded=0;align=center;verticalAlign=top;endFill=0;labelBackgroundColor=none;endSize=2;fontSize=9;fontColor=#000000;entryX=1.05;entryY=0.517;entryDx=0;entryDy=0;entryPerimeter=0;exitX=1;exitY=0.5;exitDx=0;exitDy=0;strokeColor=#000000;" edge="1" parent="1" source="157" target="156">
                    <mxGeometry relative="1" as="geometry">
                        <mxPoint x="768.2499999999999" y="435" as="sourcePoint"/>
                        <Array as="points">
                            <mxPoint x="750" y="544"/>
                        </Array>
                    </mxGeometry>
                </mxCell>
                <mxCell id="156" value="" style="shape=requiredInterface;html=1;fontSize=11;align=center;fillColor=none;points=[];aspect=fixed;resizable=0;verticalAlign=bottom;labelPosition=center;verticalLabelPosition=top;flipH=1;fontColor=#000000;rotation=90;strokeColor=#000000;" vertex="1" parent="1">
                    <mxGeometry x="747.5" y="577" width="5" height="10" as="geometry"/>
                </mxCell>
                <mxCell id="157" value="" style="html=1;rounded=0;fontSize=9;fontColor=#000000;strokeColor=#000000;" vertex="1" parent="1">
                    <mxGeometry x="699.5" y="534" width="19" height="20" as="geometry"/>
                </mxCell>
                <mxCell id="158" value="" style="endArrow=none;html=1;rounded=0;align=center;verticalAlign=top;endFill=0;labelBackgroundColor=none;endSize=2;fontSize=9;fontColor=#000000;entryX=0.073;entryY=0.486;entryDx=0;entryDy=0;entryPerimeter=0;strokeColor=#000000;" edge="1" parent="1" source="157" target="160">
                    <mxGeometry relative="1" as="geometry">
                        <mxPoint x="703" y="544" as="targetPoint"/>
                    </mxGeometry>
                </mxCell>
                <mxCell id="159" value="" style="endArrow=none;html=1;rounded=0;align=center;verticalAlign=top;endFill=0;labelBackgroundColor=none;endSize=2;fontSize=9;fontColor=#000000;exitX=1;exitY=0.5;exitDx=0;exitDy=0;strokeColor=#000000;" edge="1" parent="1" source="161" target="160">
                    <mxGeometry relative="1" as="geometry">
                        <mxPoint x="677.5" y="544" as="sourcePoint"/>
                    </mxGeometry>
                </mxCell>
                <mxCell id="160" value="" style="ellipse;html=1;fontSize=11;align=center;fillColor=none;points=[];aspect=fixed;resizable=0;verticalAlign=bottom;labelPosition=center;verticalLabelPosition=top;flipH=1;fontColor=#000000;strokeColor=#000000;" vertex="1" parent="1">
                    <mxGeometry x="683.5" y="540" width="8" height="8" as="geometry"/>
                </mxCell>
                <mxCell id="161" value="" style="html=1;rounded=0;fontSize=9;fontColor=#000000;strokeColor=#000000;" vertex="1" parent="1">
                    <mxGeometry x="656" y="534" width="20" height="20" as="geometry"/>
                </mxCell>
                <mxCell id="162" value="&lt;font style=&quot;font-size: 9px;&quot;&gt;User Type&lt;/font&gt;" style="text;html=1;strokeColor=none;fillColor=none;align=center;verticalAlign=middle;whiteSpace=wrap;rounded=0;fontColor=#000000;" vertex="1" parent="1">
                    <mxGeometry x="754" y="571" width="50" height="26" as="geometry"/>
                </mxCell>
                <mxCell id="163" value="" style="html=1;rounded=0;fontSize=9;fontColor=#000000;strokeColor=#000000;" vertex="1" parent="1">
                    <mxGeometry x="523.5" y="534" width="19" height="20" as="geometry"/>
                </mxCell>
                <mxCell id="164" value="" style="endArrow=none;html=1;rounded=0;align=center;verticalAlign=top;endFill=0;labelBackgroundColor=none;endSize=2;fontSize=9;fontColor=#000000;entryX=0.073;entryY=0.486;entryDx=0;entryDy=0;entryPerimeter=0;strokeColor=#000000;" edge="1" parent="1" source="163" target="166">
                    <mxGeometry relative="1" as="geometry">
                        <mxPoint x="527" y="544" as="targetPoint"/>
                    </mxGeometry>
                </mxCell>
                <mxCell id="165" value="" style="endArrow=none;html=1;rounded=0;align=center;verticalAlign=top;endFill=0;labelBackgroundColor=none;endSize=2;fontSize=9;fontColor=#000000;exitX=1;exitY=0.5;exitDx=0;exitDy=0;strokeColor=#000000;" edge="1" parent="1" source="167" target="166">
                    <mxGeometry relative="1" as="geometry">
                        <mxPoint x="501.5" y="544" as="sourcePoint"/>
                    </mxGeometry>
                </mxCell>
                <mxCell id="166" value="" style="ellipse;html=1;fontSize=11;align=center;fillColor=none;points=[];aspect=fixed;resizable=0;verticalAlign=bottom;labelPosition=center;verticalLabelPosition=top;flipH=1;fontColor=#000000;strokeColor=#000000;" vertex="1" parent="1">
                    <mxGeometry x="507.5" y="540" width="8" height="8" as="geometry"/>
                </mxCell>
                <mxCell id="167" value="" style="html=1;rounded=0;fontSize=9;fontColor=#000000;strokeColor=#000000;" vertex="1" parent="1">
                    <mxGeometry x="480" y="534" width="20" height="20" as="geometry"/>
                </mxCell>
                <mxCell id="168" value="" style="html=1;rounded=0;fontSize=9;fontColor=#000000;strokeColor=#000000;" vertex="1" parent="1">
                    <mxGeometry x="617" y="491" width="20" height="20" as="geometry"/>
                </mxCell>
                <mxCell id="169" value="" style="endArrow=none;html=1;rounded=0;align=center;verticalAlign=top;endFill=0;labelBackgroundColor=none;endSize=2;fontSize=9;fontColor=#000000;exitX=0.5;exitY=0;exitDx=0;exitDy=0;strokeColor=#000000;" edge="1" parent="1" source="168" target="170">
                    <mxGeometry relative="1" as="geometry"/>
                </mxCell>
                <mxCell id="170" value="" style="ellipse;html=1;fontSize=11;align=center;fillColor=none;points=[];aspect=fixed;resizable=0;verticalAlign=bottom;labelPosition=center;verticalLabelPosition=top;flipH=1;fontColor=#000000;strokeColor=#000000;" vertex="1" parent="1">
                    <mxGeometry x="623" y="473" width="8" height="8" as="geometry"/>
                </mxCell>
                <mxCell id="171" value="" style="endArrow=none;html=1;rounded=0;align=center;verticalAlign=top;endFill=0;labelBackgroundColor=none;endSize=2;fontSize=9;fontColor=#000000;exitX=0.496;exitY=-0.003;exitDx=0;exitDy=0;exitPerimeter=0;entryX=0.5;entryY=1;entryDx=0;entryDy=0;strokeColor=#000000;" edge="1" parent="1" source="170" target="172">
                    <mxGeometry relative="1" as="geometry">
                        <mxPoint x="626.9000000000001" y="545" as="sourcePoint"/>
                        <mxPoint x="645.5" y="422" as="targetPoint"/>
                    </mxGeometry>
                </mxCell>
                <mxCell id="172" value="" style="html=1;rounded=0;fontSize=9;fontColor=#000000;strokeColor=#000000;" vertex="1" parent="1">
                    <mxGeometry x="617" y="444" width="20" height="20" as="geometry"/>
                </mxCell>
                <mxCell id="173" value="" style="html=1;rounded=0;fontSize=9;fontColor=#000000;strokeColor=#000000;" vertex="1" parent="1">
                    <mxGeometry x="629.25" y="1074" width="20" height="20" as="geometry"/>
                </mxCell>
                <mxCell id="174" value="" style="html=1;rounded=0;fontSize=9;fontColor=#000000;strokeColor=#000000;" vertex="1" parent="1">
                    <mxGeometry x="666.5" y="1074" width="19" height="20" as="geometry"/>
                </mxCell>
                <mxCell id="175" value="" style="endArrow=none;html=1;rounded=0;align=center;verticalAlign=top;endFill=0;labelBackgroundColor=none;endSize=2;fontSize=9;fontColor=#000000;entryX=0.073;entryY=0.486;entryDx=0;entryDy=0;entryPerimeter=0;strokeColor=#000000;" edge="1" parent="1" source="174" target="177">
                    <mxGeometry relative="1" as="geometry">
                        <mxPoint x="663.75" y="1107" as="targetPoint"/>
                    </mxGeometry>
                </mxCell>
                <mxCell id="176" value="" style="endArrow=none;html=1;rounded=0;align=center;verticalAlign=top;endFill=0;labelBackgroundColor=none;endSize=2;fontSize=9;fontColor=#000000;exitX=1;exitY=0.5;exitDx=0;exitDy=0;strokeColor=#000000;" edge="1" parent="1" source="173" target="177">
                    <mxGeometry relative="1" as="geometry">
                        <mxPoint x="647.5" y="1087" as="sourcePoint"/>
                    </mxGeometry>
                </mxCell>
                <mxCell id="177" value="" style="ellipse;html=1;fontSize=11;align=center;fillColor=none;points=[];aspect=fixed;resizable=0;verticalAlign=bottom;labelPosition=center;verticalLabelPosition=top;flipH=1;fontColor=#000000;strokeColor=#000000;" vertex="1" parent="1">
                    <mxGeometry x="654.5" y="1080" width="8" height="8" as="geometry"/>
                </mxCell>
                <mxCell id="178" value="" style="html=1;rounded=0;fontSize=9;fontColor=#000000;strokeColor=#000000;" vertex="1" parent="1">
                    <mxGeometry x="723.5" y="931" width="20" height="20" as="geometry"/>
                </mxCell>
                <mxCell id="179" value="" style="endArrow=none;html=1;rounded=0;align=center;verticalAlign=top;endFill=0;labelBackgroundColor=none;endSize=2;fontSize=9;fontColor=#000000;strokeColor=#000000;" edge="1" parent="1" source="178" target="180">
                    <mxGeometry relative="1" as="geometry"/>
                </mxCell>
                <mxCell id="180" value="" style="ellipse;html=1;fontSize=11;align=center;fillColor=none;points=[];aspect=fixed;resizable=0;verticalAlign=bottom;labelPosition=center;verticalLabelPosition=top;flipH=1;fontColor=#000000;strokeColor=#000000;" vertex="1" parent="1">
                    <mxGeometry x="729.5" y="1021" width="8" height="8" as="geometry"/>
                </mxCell>
                <mxCell id="181" value="" style="endArrow=none;html=1;rounded=0;align=center;verticalAlign=top;endFill=0;labelBackgroundColor=none;endSize=2;fontSize=9;fontColor=#000000;entryX=1.05;entryY=0.517;entryDx=0;entryDy=0;entryPerimeter=0;exitX=1;exitY=0.5;exitDx=0;exitDy=0;strokeColor=#000000;" edge="1" parent="1" source="174" target="182">
                    <mxGeometry relative="1" as="geometry">
                        <mxPoint x="752.5" y="1042" as="sourcePoint"/>
                        <Array as="points">
                            <mxPoint x="734" y="1084"/>
                        </Array>
                    </mxGeometry>
                </mxCell>
                <mxCell id="182" value="" style="shape=requiredInterface;html=1;fontSize=11;align=center;fillColor=none;points=[];aspect=fixed;resizable=0;verticalAlign=bottom;labelPosition=center;verticalLabelPosition=top;flipH=1;fontColor=#000000;rotation=-90;strokeColor=#000000;" vertex="1" parent="1">
                    <mxGeometry x="731" y="1024" width="5" height="10" as="geometry"/>
                </mxCell>
                <mxCell id="183" value="&lt;font style=&quot;font-size: 9px;&quot;&gt;User Type&lt;/font&gt;" style="text;html=1;strokeColor=none;fillColor=none;align=center;verticalAlign=middle;whiteSpace=wrap;rounded=0;fontColor=#000000;" vertex="1" parent="1">
                    <mxGeometry x="681" y="1012" width="50" height="26" as="geometry"/>
                </mxCell>
                <mxCell id="184" value="" style="html=1;rounded=0;fontSize=9;fontColor=#000000;strokeColor=#000000;" vertex="1" parent="1">
                    <mxGeometry x="723.5" y="769" width="20" height="20" as="geometry"/>
                </mxCell>
                <mxCell id="185" value="" style="endArrow=none;html=1;rounded=0;align=center;verticalAlign=top;endFill=0;labelBackgroundColor=none;endSize=2;fontSize=9;fontColor=#000000;strokeColor=#000000;" edge="1" parent="1" source="184" target="186">
                    <mxGeometry relative="1" as="geometry"/>
                </mxCell>
                <mxCell id="186" value="" style="ellipse;html=1;fontSize=11;align=center;fillColor=none;points=[];aspect=fixed;resizable=0;verticalAlign=bottom;labelPosition=center;verticalLabelPosition=top;flipH=1;fontColor=#000000;strokeColor=#000000;" vertex="1" parent="1">
                    <mxGeometry x="729.5" y="855" width="8" height="8" as="geometry"/>
                </mxCell>
                <mxCell id="187" value="" style="endArrow=none;html=1;rounded=0;align=center;verticalAlign=top;endFill=0;labelBackgroundColor=none;endSize=2;fontSize=9;fontColor=#000000;entryX=0.5;entryY=0;entryDx=0;entryDy=0;strokeColor=#000000;" edge="1" parent="1" target="178">
                    <mxGeometry relative="1" as="geometry">
                        <mxPoint x="733.4000000000001" y="863" as="sourcePoint"/>
                        <mxPoint x="733.4999999999999" y="931" as="targetPoint"/>
                    </mxGeometry>
                </mxCell>
                <mxCell id="188" value="" style="html=1;rounded=0;fontSize=9;fontColor=#000000;strokeColor=#000000;" vertex="1" parent="1">
                    <mxGeometry x="459.25" y="1074" width="20" height="20" as="geometry"/>
                </mxCell>
                <mxCell id="189" value="" style="html=1;rounded=0;fontSize=9;fontColor=#000000;strokeColor=#000000;" vertex="1" parent="1">
                    <mxGeometry x="496.5" y="1074" width="19" height="20" as="geometry"/>
                </mxCell>
                <mxCell id="190" value="" style="endArrow=none;html=1;rounded=0;align=center;verticalAlign=top;endFill=0;labelBackgroundColor=none;endSize=2;fontSize=9;fontColor=#000000;entryX=0.073;entryY=0.486;entryDx=0;entryDy=0;entryPerimeter=0;strokeColor=#000000;" edge="1" parent="1" source="189" target="192">
                    <mxGeometry relative="1" as="geometry">
                        <mxPoint x="493.75" y="1107" as="targetPoint"/>
                    </mxGeometry>
                </mxCell>
                <mxCell id="191" value="" style="endArrow=none;html=1;rounded=0;align=center;verticalAlign=top;endFill=0;labelBackgroundColor=none;endSize=2;fontSize=9;fontColor=#000000;exitX=1;exitY=0.5;exitDx=0;exitDy=0;strokeColor=#000000;" edge="1" parent="1" source="188" target="192">
                    <mxGeometry relative="1" as="geometry">
                        <mxPoint x="477.5" y="1087" as="sourcePoint"/>
                    </mxGeometry>
                </mxCell>
                <mxCell id="192" value="" style="ellipse;html=1;fontSize=11;align=center;fillColor=none;points=[];aspect=fixed;resizable=0;verticalAlign=bottom;labelPosition=center;verticalLabelPosition=top;flipH=1;fontColor=#000000;strokeColor=#000000;" vertex="1" parent="1">
                    <mxGeometry x="484.5" y="1080" width="8" height="8" as="geometry"/>
                </mxCell>
                <mxCell id="193" value="" style="html=1;rounded=0;fontSize=9;fontColor=#000000;strokeColor=#000000;" vertex="1" parent="1">
                    <mxGeometry x="459.25" y="1190" width="20" height="20" as="geometry"/>
                </mxCell>
                <mxCell id="194" value="" style="endArrow=none;html=1;rounded=0;align=center;verticalAlign=top;endFill=0;labelBackgroundColor=none;endSize=2;fontSize=9;fontColor=#000000;entryX=0.288;entryY=0.072;entryDx=0;entryDy=0;entryPerimeter=0;exitX=0.25;exitY=1;exitDx=0;exitDy=0;strokeColor=#000000;" edge="1" parent="1" source="189" target="196">
                    <mxGeometry relative="1" as="geometry">
                        <mxPoint x="493.75" y="1223" as="targetPoint"/>
                        <mxPoint x="496.5" y="1199.9244532803182" as="sourcePoint"/>
                    </mxGeometry>
                </mxCell>
                <mxCell id="195" value="" style="endArrow=none;html=1;rounded=0;align=center;verticalAlign=top;endFill=0;labelBackgroundColor=none;endSize=2;fontSize=9;fontColor=#000000;exitX=1;exitY=0.5;exitDx=0;exitDy=0;strokeColor=#000000;" edge="1" parent="1" source="193" target="196">
                    <mxGeometry relative="1" as="geometry">
                        <mxPoint x="477.5" y="1203" as="sourcePoint"/>
                    </mxGeometry>
                </mxCell>
                <mxCell id="196" value="" style="ellipse;html=1;fontSize=11;align=center;fillColor=none;points=[];aspect=fixed;resizable=0;verticalAlign=bottom;labelPosition=center;verticalLabelPosition=top;flipH=1;fontColor=#000000;strokeColor=#000000;" vertex="1" parent="1">
                    <mxGeometry x="484.5" y="1147" width="8" height="8" as="geometry"/>
                </mxCell>
                <mxCell id="197" value="" style="endArrow=none;html=1;rounded=0;align=center;verticalAlign=top;endFill=0;labelBackgroundColor=none;endSize=2;fontSize=9;fontColor=#000000;entryX=0;entryY=0.5;entryDx=0;entryDy=0;strokeColor=#000000;exitX=1.008;exitY=0.475;exitDx=0;exitDy=0;exitPerimeter=0;" edge="1" parent="1" source="119" target="108">
                    <mxGeometry relative="1" as="geometry">
                        <mxPoint x="620" y="320" as="sourcePoint"/>
                        <mxPoint x="837.79" y="207.04" as="targetPoint"/>
                        <Array as="points">
                            <mxPoint x="627" y="237"/>
                        </Array>
                    </mxGeometry>
                </mxCell>
                <mxCell id="198" value="" style="endArrow=none;html=1;rounded=0;align=center;verticalAlign=top;endFill=0;labelBackgroundColor=none;endSize=2;fontSize=9;fontColor=#000000;exitX=0.5;exitY=0;exitDx=0;exitDy=0;strokeColor=#000000;" edge="1" parent="1" source="200" target="199">
                    <mxGeometry relative="1" as="geometry">
                        <mxPoint x="959" y="442.87531609492055" as="sourcePoint"/>
                    </mxGeometry>
                </mxCell>
                <mxCell id="199" value="" style="ellipse;html=1;fontSize=11;align=center;fillColor=none;points=[];aspect=fixed;resizable=0;verticalAlign=bottom;labelPosition=center;verticalLabelPosition=top;flipH=1;fontColor=#000000;strokeColor=#000000;" vertex="1" parent="1">
                    <mxGeometry x="909.5" y="413" width="8" height="8" as="geometry"/>
                </mxCell>
                <mxCell id="200" value="" style="html=1;rounded=0;fontSize=9;fontColor=#000000;strokeColor=#000000;" vertex="1" parent="1">
                    <mxGeometry x="904" y="428" width="19" height="20" as="geometry"/>
                </mxCell>
                <mxCell id="201" value="" style="endArrow=none;html=1;rounded=0;align=center;verticalAlign=top;endFill=0;labelBackgroundColor=none;endSize=2;fontSize=9;fontColor=#000000;exitX=0.498;exitY=0.014;exitDx=0;exitDy=0;exitPerimeter=0;strokeColor=#000000;entryX=0.5;entryY=1;entryDx=0;entryDy=0;" edge="1" parent="1" source="199" target="202">
                    <mxGeometry relative="1" as="geometry">
                        <mxPoint x="939.6199999999999" y="434.0640000000001" as="sourcePoint"/>
                        <mxPoint x="975" y="433.96000000000004" as="targetPoint"/>
                    </mxGeometry>
                </mxCell>
                <mxCell id="202" value="" style="html=1;rounded=0;fontSize=9;fontColor=#000000;strokeColor=#000000;" vertex="1" parent="1">
                    <mxGeometry x="904" y="386" width="19" height="20" as="geometry"/>
                </mxCell>
                <mxCell id="203" value="" style="endArrow=none;html=1;rounded=0;align=center;verticalAlign=top;endFill=0;labelBackgroundColor=none;endSize=2;fontSize=9;fontColor=#000000;exitX=0.5;exitY=0;exitDx=0;exitDy=0;strokeColor=#000000;" edge="1" parent="1" target="204">
                    <mxGeometry relative="1" as="geometry">
                        <mxPoint x="913.3699999999999" y="386" as="sourcePoint"/>
                    </mxGeometry>
                </mxCell>
                <mxCell id="204" value="" style="ellipse;html=1;fontSize=11;align=center;fillColor=none;points=[];aspect=fixed;resizable=0;verticalAlign=bottom;labelPosition=center;verticalLabelPosition=top;flipH=1;fontColor=#000000;strokeColor=#000000;" vertex="1" parent="1">
                    <mxGeometry x="909.5" y="358" width="8" height="8" as="geometry"/>
                </mxCell>
                <mxCell id="205" value="" style="shape=requiredInterface;html=1;fontSize=11;align=center;fillColor=none;points=[];aspect=fixed;resizable=0;verticalAlign=bottom;labelPosition=center;verticalLabelPosition=top;flipH=1;fontColor=#000000;rotation=90;strokeColor=#000000;" vertex="1" parent="1">
                    <mxGeometry x="911" y="352" width="5" height="10" as="geometry"/>
                </mxCell>
                <mxCell id="206" value="" style="endArrow=none;html=1;rounded=0;align=center;verticalAlign=top;endFill=0;labelBackgroundColor=none;endSize=2;fontSize=9;fontColor=#000000;strokeColor=#000000;exitX=1.008;exitY=0.475;exitDx=0;exitDy=0;exitPerimeter=0;entryX=1;entryY=0.5;entryDx=0;entryDy=0;" edge="1" parent="1" source="205" target="212">
                    <mxGeometry relative="1" as="geometry">
                        <mxPoint x="913.37" y="262" as="sourcePoint"/>
                        <mxPoint x="1090" y="330" as="targetPoint"/>
                        <Array as="points">
                            <mxPoint x="914" y="330"/>
                            <mxPoint x="1410" y="330"/>
                            <mxPoint x="1410" y="1042"/>
                        </Array>
                    </mxGeometry>
                </mxCell>
                <mxCell id="207" value="&lt;font style=&quot;font-size: 9px;&quot;&gt;Posts List&lt;/font&gt;" style="text;html=1;strokeColor=none;fillColor=none;align=center;verticalAlign=middle;whiteSpace=wrap;rounded=0;fontColor=#000000;" vertex="1" parent="1">
                    <mxGeometry x="848.25" y="346" width="65" height="26" as="geometry"/>
                </mxCell>
                <mxCell id="208" value="" style="endArrow=none;html=1;rounded=0;align=center;verticalAlign=top;endFill=0;labelBackgroundColor=none;endSize=2;fontSize=9;fontColor=#000000;exitX=1;exitY=0.5;exitDx=0;exitDy=0;strokeColor=#000000;" edge="1" parent="1" source="210" target="209">
                    <mxGeometry relative="1" as="geometry">
                        <mxPoint x="1260" y="1050.8753160949204" as="sourcePoint"/>
                    </mxGeometry>
                </mxCell>
                <mxCell id="209" value="" style="ellipse;html=1;fontSize=11;align=center;fillColor=none;points=[];aspect=fixed;resizable=0;verticalAlign=bottom;labelPosition=center;verticalLabelPosition=top;flipH=1;fontColor=#000000;strokeColor=#000000;" vertex="1" parent="1">
                    <mxGeometry x="1234" y="1038" width="8" height="8" as="geometry"/>
                </mxCell>
                <mxCell id="210" value="" style="html=1;rounded=0;fontSize=9;fontColor=#000000;strokeColor=#000000;" vertex="1" parent="1">
                    <mxGeometry x="1205" y="1032" width="19" height="20" as="geometry"/>
                </mxCell>
                <mxCell id="211" value="" style="endArrow=none;html=1;rounded=0;align=center;verticalAlign=top;endFill=0;labelBackgroundColor=none;endSize=2;fontSize=9;fontColor=#000000;exitX=-0.015;exitY=0.508;exitDx=0;exitDy=0;exitPerimeter=0;strokeColor=#000000;" edge="1" parent="1" source="209" target="212">
                    <mxGeometry relative="1" as="geometry">
                        <mxPoint x="1240.62" y="1042.064" as="sourcePoint"/>
                        <mxPoint x="1276" y="1041.96" as="targetPoint"/>
                    </mxGeometry>
                </mxCell>
                <mxCell id="212" value="" style="html=1;rounded=0;fontSize=9;fontColor=#000000;strokeColor=#000000;" vertex="1" parent="1">
                    <mxGeometry x="1254" y="1032" width="19" height="20" as="geometry"/>
                </mxCell>
                <mxCell id="213" value="" style="html=1;rounded=0;fontSize=9;fontColor=#000000;strokeColor=#000000;" vertex="1" parent="1">
                    <mxGeometry x="964.25" y="1212" width="20" height="20" as="geometry"/>
                </mxCell>
                <mxCell id="214" value="" style="endArrow=none;html=1;rounded=0;align=center;verticalAlign=top;endFill=0;labelBackgroundColor=none;endSize=2;fontSize=9;fontColor=#000000;strokeColor=#000000;" edge="1" parent="1" source="213" target="215">
                    <mxGeometry relative="1" as="geometry"/>
                </mxCell>
                <mxCell id="215" value="" style="ellipse;html=1;fontSize=11;align=center;fillColor=none;points=[];aspect=fixed;resizable=0;verticalAlign=bottom;labelPosition=center;verticalLabelPosition=top;flipH=1;fontColor=#000000;strokeColor=#000000;" vertex="1" parent="1">
                    <mxGeometry x="970.25" y="1236" width="8" height="8" as="geometry"/>
                </mxCell>
                <mxCell id="216" value="" style="html=1;rounded=0;fontSize=9;fontColor=#000000;strokeColor=#000000;" vertex="1" parent="1">
                    <mxGeometry x="964.25" y="1248" width="20" height="20" as="geometry"/>
                </mxCell>
                <mxCell id="217" value="" style="endArrow=none;html=1;rounded=0;align=center;verticalAlign=top;endFill=0;labelBackgroundColor=none;endSize=2;fontSize=9;fontColor=#000000;entryX=0.5;entryY=0;entryDx=0;entryDy=0;exitX=0.498;exitY=0.997;exitDx=0;exitDy=0;exitPerimeter=0;strokeColor=#000000;" edge="1" parent="1" source="215" target="216">
                    <mxGeometry relative="1" as="geometry">
                        <mxPoint x="974.15" y="1194" as="sourcePoint"/>
                        <mxPoint x="974.25" y="1253" as="targetPoint"/>
                    </mxGeometry>
                </mxCell>
                <mxCell id="218" value="" style="html=1;rounded=0;fontSize=9;fontColor=#000000;strokeColor=#000000;" vertex="1" parent="1">
                    <mxGeometry x="590" y="490.5" width="20" height="20" as="geometry"/>
                </mxCell>
                <mxCell id="219" value="" style="endArrow=none;html=1;rounded=0;align=center;verticalAlign=top;endFill=0;labelBackgroundColor=none;endSize=2;fontSize=9;fontColor=#000000;exitX=0.5;exitY=0;exitDx=0;exitDy=0;strokeColor=#000000;" edge="1" parent="1" source="218" target="220">
                    <mxGeometry relative="1" as="geometry"/>
                </mxCell>
                <mxCell id="220" value="" style="ellipse;html=1;fontSize=11;align=center;fillColor=none;points=[];aspect=fixed;resizable=0;verticalAlign=bottom;labelPosition=center;verticalLabelPosition=top;flipH=1;fontColor=#000000;strokeColor=#000000;" vertex="1" parent="1">
                    <mxGeometry x="596" y="472.5" width="8" height="8" as="geometry"/>
                </mxCell>
                <mxCell id="221" value="" style="endArrow=none;html=1;rounded=0;align=center;verticalAlign=top;endFill=0;labelBackgroundColor=none;endSize=2;fontSize=9;fontColor=#000000;exitX=0.496;exitY=-0.003;exitDx=0;exitDy=0;exitPerimeter=0;entryX=0.5;entryY=1;entryDx=0;entryDy=0;strokeColor=#000000;" edge="1" parent="1" source="220" target="222">
                    <mxGeometry relative="1" as="geometry">
                        <mxPoint x="599.9000000000001" y="544.5" as="sourcePoint"/>
                        <mxPoint x="618.5" y="421.5" as="targetPoint"/>
                    </mxGeometry>
                </mxCell>
                <mxCell id="222" value="" style="html=1;rounded=0;fontSize=9;fontColor=#000000;strokeColor=#000000;" vertex="1" parent="1">
                    <mxGeometry x="590" y="443.5" width="20" height="20" as="geometry"/>
                </mxCell>
                <mxCell id="223" value="" style="endArrow=none;html=1;rounded=0;align=center;verticalAlign=top;endFill=0;labelBackgroundColor=none;endSize=2;fontSize=9;fontColor=#000000;entryX=0.501;entryY=0.995;entryDx=0;entryDy=0;entryPerimeter=0;exitX=0.5;exitY=0;exitDx=0;exitDy=0;strokeColor=#000000;" edge="1" parent="1" source="222" target="224">
                    <mxGeometry relative="1" as="geometry">
                        <mxPoint x="599.9999999999999" y="443.5" as="sourcePoint"/>
                    </mxGeometry>
                </mxCell>
                <mxCell id="224" value="" style="ellipse;html=1;fontSize=11;align=center;fillColor=none;points=[];aspect=fixed;resizable=0;verticalAlign=bottom;labelPosition=center;verticalLabelPosition=top;flipH=1;fontColor=#000000;strokeColor=#000000;" vertex="1" parent="1">
                    <mxGeometry x="596" y="398.5" width="8" height="8" as="geometry"/>
                </mxCell>
                <mxCell id="225" value="" style="endArrow=none;html=1;rounded=0;align=center;verticalAlign=top;endFill=0;labelBackgroundColor=none;endSize=2;fontSize=9;fontColor=#000000;entryX=1.05;entryY=0.517;entryDx=0;entryDy=0;entryPerimeter=0;strokeColor=#000000;exitX=0.5;exitY=1;exitDx=0;exitDy=0;" edge="1" parent="1" source="216" target="226">
                    <mxGeometry relative="1" as="geometry">
                        <mxPoint x="568.5" y="359.5" as="sourcePoint"/>
                        <Array as="points">
                            <mxPoint x="974" y="1340"/>
                            <mxPoint x="280" y="1340"/>
                            <mxPoint x="280" y="360"/>
                            <mxPoint x="600" y="359.5"/>
                        </Array>
                    </mxGeometry>
                </mxCell>
                <mxCell id="226" value="" style="shape=requiredInterface;html=1;fontSize=11;align=center;fillColor=none;points=[];aspect=fixed;resizable=0;verticalAlign=bottom;labelPosition=center;verticalLabelPosition=top;flipH=1;fontColor=#000000;rotation=90;strokeColor=#000000;" vertex="1" parent="1">
                    <mxGeometry x="597.5" y="392.5" width="5" height="10" as="geometry"/>
                </mxCell>
                <mxCell id="227" value="&lt;font style=&quot;font-size: 9px;&quot;&gt;Feedback List&lt;/font&gt;" style="text;html=1;strokeColor=none;fillColor=none;align=center;verticalAlign=middle;whiteSpace=wrap;rounded=0;fontColor=#000000;" vertex="1" parent="1">
                    <mxGeometry x="523.5" y="386" width="65" height="26" as="geometry"/>
                </mxCell>
            </root>
        </mxGraphModel>
    </diagram>
</mxfile>